<?xml version="1.0" encoding="UTF-8"?>
<svg id="_圖層_2" data-name="圖層 2" xmlns="http://www.w3.org/2000/svg" viewBox="0 0 874.72 140.8">
  <g id="_圖層_1-2" data-name="圖層 1">
    <g>
      <path d="M155.54,138.82c0,.88-.29,1.32-.88,1.32-2.79,0-7.12-.14-12.98-.44-5.87-.29-10.12-.44-12.76-.44-3.23,0-7.34,.15-12.32,.44-4.7,.3-8.29,.44-10.78,.44-.59,0-.88-.44-.88-1.32s.29-1.32,.88-1.32c5.57,0,9.57-.51,11.99-1.54,2.42-1.02,3.63-2.86,3.63-5.5,0-2.2-.88-5.28-2.64-9.24L69.96,18.04l5.5-6.82L32.78,112.2c-2.05,4.99-3.08,9.1-3.08,12.32,0,8.66,7.18,12.98,21.56,12.98,.73,0,1.1,.44,1.1,1.32s-.37,1.32-1.1,1.32c-2.64,0-6.46-.14-11.44-.44-5.58-.29-10.42-.44-14.52-.44-3.81,0-8.21,.15-13.2,.44-4.4,.3-8.07,.44-11,.44-.73,0-1.1-.44-1.1-1.32s.37-1.32,1.1-1.32c4.1,0,7.59-.77,10.45-2.31,2.86-1.54,5.57-4.25,8.14-8.14,2.56-3.88,5.39-9.49,8.47-16.83L74.58,.66c.29-.44,.8-.66,1.54-.66s1.17,.22,1.32,.66l51.92,109.34c4.98,10.86,9.24,18.15,12.76,21.89s7.7,5.61,12.54,5.61c.58,0,.88,.44,.88,1.32ZM45.76,75.24h58.3l1.54,4.4H43.56l2.2-4.4Z" fill="#1a1a1a"/>
      <path d="M282.48,140.8c-1.18,0-1.98-.3-2.42-.88L225.28,20.9c-2.64-5.86-5.28-9.93-7.92-12.21-2.64-2.27-6.24-3.41-10.78-3.41-.44,0-.66-.44-.66-1.32s.22-1.32,.66-1.32l8.36,.22c4.1,.3,7.4,.44,9.9,.44,5.28,0,11-.14,17.16-.44l9.02-.22c.44,0,.66,.44,.66,1.32s-.22,1.32-.66,1.32c-4.4,0-7.67,.52-9.79,1.54-2.13,1.03-3.19,2.79-3.19,5.28,0,2.2,.73,4.84,2.2,7.92l48.84,104.94-7.92,10.56,28.82-71.94,3.3,4.84-28.38,71.5c-.15,.58-.96,.88-2.42,.88ZM412.94,3.96c0,.88-.15,1.32-.44,1.32-4.99,0-9.32,1.32-12.98,3.96-3.67,2.64-6.82,7.12-9.46,13.42l-46.86,117.26c-.15,.58-.96,.88-2.42,.88-1.18,0-1.98-.3-2.42-.88l-54.56-119.02c-2.64-5.72-5.28-9.75-7.92-12.1-2.64-2.34-6.09-3.52-10.34-3.52-.44,0-.66-.44-.66-1.32s.22-1.32,.66-1.32l8.36,.22c3.81,.3,6.96,.44,9.46,.44,4.1,0,8.36-.14,12.76-.44l5.94-.22c.44,0,.66,.44,.66,1.32s-.22,1.32-.66,1.32c-2.64,0-4.55,.26-5.72,.77-1.18,.52-1.76,1.43-1.76,2.75,0,1.76,1.32,5.5,3.96,11.22l49.06,104.94-7.92,10.56,45.54-113.74c1.17-3.08,1.76-5.5,1.76-7.26,0-3.22-1.36-5.57-4.07-7.04-2.72-1.46-6.93-2.2-12.65-2.2-.44,0-.66-.44-.66-1.32s.22-1.32,.66-1.32l9.24,.22c4.98,.3,9.46,.44,13.42,.44,2.93,0,6.3-.14,10.12-.44l9.46-.22c.29,0,.44,.44,.44,1.32Zm-82.5,7.7c0-4.25-3.16-6.38-9.46-6.38-.44,0-.66-.44-.66-1.32s.22-1.32,.66-1.32l5.06,.22c2.93,.3,6.01,.44,9.24,.44,2.93,0,6.3-.14,10.12-.44l9.02-.22c.29,0,.44,.44,.44,1.32s-.15,1.32-.44,1.32c-4.99,0-9.21,1.29-12.65,3.85-3.45,2.57-6.49,7.08-9.13,13.53l-18.26,45.76-3.3-4.84,16.72-42.24c1.76-3.96,2.64-7.18,2.64-9.68Z" fill="#1a1a1a"/>
      <path d="M547.58,138.82c0,.88-.3,1.32-.88,1.32-2.79,0-7.12-.14-12.98-.44-5.87-.29-10.12-.44-12.76-.44-3.23,0-7.34,.15-12.32,.44-4.7,.3-8.29,.44-10.78,.44-.59,0-.88-.44-.88-1.32s.29-1.32,.88-1.32c5.57,0,9.57-.51,11.99-1.54,2.42-1.02,3.63-2.86,3.63-5.5,0-2.2-.88-5.28-2.64-9.24l-48.84-103.18,5.5-6.82-42.68,100.98c-2.06,4.99-3.08,9.1-3.08,12.32,0,8.66,7.18,12.98,21.56,12.98,.73,0,1.1,.44,1.1,1.32s-.37,1.32-1.1,1.32c-2.64,0-6.46-.14-11.44-.44-5.58-.29-10.42-.44-14.52-.44-3.82,0-8.22,.15-13.2,.44-4.4,.3-8.07,.44-11,.44-.73,0-1.1-.44-1.1-1.32s.37-1.32,1.1-1.32c4.1,0,7.59-.77,10.45-2.31s5.57-4.25,8.14-8.14c2.56-3.88,5.39-9.49,8.47-16.83L466.62,.66c.29-.44,.8-.66,1.54-.66s1.17,.22,1.32,.66l51.92,109.34c4.98,10.86,9.24,18.15,12.76,21.89,3.52,3.74,7.7,5.61,12.54,5.61,.58,0,.88,.44,.88,1.32Zm-109.78-63.58h58.3l1.54,4.4h-62.04l2.2-4.4Z" fill="#1a1a1a"/>
      <path d="M640.64,9.9c6.3,5.28,9.46,12.32,9.46,21.12,0,7.78-2.28,14.85-6.82,21.23-4.55,6.38-10.67,11.44-18.37,15.18-7.7,3.74-15.95,5.61-24.75,5.61-.88,0-4.18-.22-9.9-.66v49.94c0,4.55,.44,7.85,1.32,9.9,.88,2.06,2.6,3.45,5.17,4.18,2.56,.74,6.63,1.1,12.21,1.1,.44,0,.66,.44,.66,1.32s-.22,1.32-.66,1.32c-4.55,0-8.14-.07-10.78-.22l-15.18-.22-14.96,.22c-2.64,.15-6.38,.22-11.22,.22-.3,0-.44-.44-.44-1.32s.14-1.32,.44-1.32c5.57,0,9.68-.4,12.32-1.21,2.64-.8,4.47-2.23,5.5-4.29,1.02-2.05,1.54-5.28,1.54-9.68V20.46c0-4.4-.48-7.62-1.43-9.68-.96-2.05-2.71-3.48-5.28-4.29-2.57-.8-6.64-1.21-12.21-1.21-.44,0-.66-.44-.66-1.32s.22-1.32,.66-1.32l10.78,.22c6.16,.3,11.14,.44,14.96,.44,3.22,0,6.23-.07,9.02-.22,2.78-.14,5.13-.29,7.04-.44,5.57-.44,10.48-.66,14.74-.66,11.58,0,20.53,2.64,26.84,7.92Zm-13.09,2.86c-5.06-4.98-12.43-7.48-22.11-7.48-5.72,0-9.68,1.03-11.88,3.08-2.2,2.06-3.3,6.24-3.3,12.54v46.2c3.52,.59,7.84,.88,12.98,.88,11.44,0,19.61-2.49,24.53-7.48,4.91-4.98,7.37-12.68,7.37-23.1,0-11.44-2.53-19.65-7.59-24.64Zm20.68,108.57c-10.34-12.54-22.77-29.81-37.29-51.81l12.32-3.74c12.76,18.34,23.43,32.6,32.01,42.79,8.58,10.2,16.17,17.57,22.77,22.11,6.6,4.55,13.05,6.82,19.36,6.82,.44,0,.66,.44,.66,1.32s-.22,1.32-.66,1.32h-28.16c-3.67,0-10.67-6.27-21.01-18.81Z" fill="#1a1a1a"/>
      <path d="M723.8,7.7l5.28,.44-2.2,108.02c-.15,7.78,1.17,13.28,3.96,16.5,2.78,3.23,7.7,4.84,14.74,4.84,.29,0,.44,.44,.44,1.32s-.15,1.32-.44,1.32c-4.11,0-7.26-.07-9.46-.22l-11.88-.22-11.44,.22c-2.06,.15-4.99,.22-8.8,.22-.3,0-.44-.44-.44-1.32s.14-1.32,.44-1.32c6.16,0,10.59-1.65,13.31-4.95,2.71-3.3,4.14-8.76,4.29-16.39l2.2-108.46Zm150.92,131.12c0,.88-.22,1.32-.66,1.32-4.55,0-8.14-.07-10.78-.22l-15.18-.22-14.08,.22c-2.35,.15-5.65,.22-9.9,.22-.3,0-.44-.44-.44-1.32s.14-1.32,.44-1.32c4.98,0,8.69-.4,11.11-1.21,2.42-.8,4.03-2.23,4.84-4.29,.8-2.05,1.06-5.28,.77-9.68l-4.18-106.26,7.26-10.12-57.2,132.66c-.3,.59-.88,.88-1.76,.88-.74,0-1.4-.29-1.98-.88l-55.22-117.7c-2.5-5.42-5.54-9.38-9.13-11.88-3.6-2.49-7.96-3.74-13.09-3.74-.3,0-.44-.44-.44-1.32s.14-1.32,.44-1.32l8.14,.22c1.46,.15,3.52,.22,6.16,.22s4.87-.07,6.71-.22c1.83-.14,3.26-.22,4.29-.22,1.9,0,3.48,.7,4.73,2.09,1.24,1.4,3.04,4.51,5.39,9.35l50.16,105.6-6.82,11.44,53.68-122.98c1.61-3.66,3.81-5.5,6.6-5.5,.73,0,1.79,.08,3.19,.22,1.39,.15,3.26,.22,5.61,.22l10.34-.22c1.61-.14,4.03-.22,7.26-.22,.29,0,.44,.44,.44,1.32s-.15,1.32-.44,1.32c-7.48,0-12.8,1.07-15.95,3.19-3.16,2.13-4.59,6.13-4.29,11.99l4.4,101.86c.14,4.55,.69,7.85,1.65,9.9,.95,2.06,2.67,3.45,5.17,4.18,2.49,.74,6.52,1.1,12.1,1.1,.44,0,.66,.44,.66,1.32Z" fill="#1a1a1a"/>
    </g>
  </g>
</svg>