<?xml version="1.0" encoding="UTF-8"?>
<svg id="_圖層_2" data-name="圖層 2" xmlns="http://www.w3.org/2000/svg" viewBox="0 0 973.49 143">
  <g id="_圖層_1-2" data-name="圖層 1">
    <g>
      <path d="M0,138.82c0-.88,.14-1.32,.44-1.32,5.57,0,9.64-.37,12.21-1.1,2.56-.73,4.32-2.16,5.28-4.29,.95-2.12,1.43-5.39,1.43-9.79V20.46c0-4.4-.48-7.62-1.43-9.68-.96-2.05-2.72-3.48-5.28-4.29-2.57-.8-6.64-1.21-12.21-1.21-.3,0-.44-.44-.44-1.32s.14-1.32,.44-1.32H88.88c1.32,0,1.98,.66,1.98,1.98l.44,27.06c0,.44-.41,.7-1.21,.77-.81,.08-1.21-.11-1.21-.55-.44-7.77-2.79-13.82-7.04-18.15-4.26-4.32-9.9-6.49-16.94-6.49h-13.42c-5.14,0-8.95,.41-11.44,1.21-2.5,.81-4.22,2.17-5.17,4.07-.96,1.91-1.43,4.92-1.43,9.02V121.44c0,3.96,.47,6.93,1.43,8.91,.95,1.98,2.6,3.34,4.95,4.07,2.34,.74,6.01,1.1,11,1.1h17.6c7.04,0,12.9-2.49,17.6-7.48,4.69-4.98,7.84-11.88,9.46-20.68,0-.29,.29-.44,.88-.44,.44,0,.84,.11,1.21,.33,.36,.22,.55,.41,.55,.55-1.32,9.24-1.98,18.92-1.98,29.04,0,1.18-.26,2.02-.77,2.53-.52,.52-1.43,.77-2.75,.77H.44c-.3,0-.44-.44-.44-1.32Zm75.57-63.8c-3.16-2.78-8.4-4.18-15.73-4.18H26.84v-4.62H60.5c7.04,0,12.06-1.17,15.07-3.52,3-2.34,4.51-6.3,4.51-11.88,0-.29,.44-.44,1.32-.44s1.32,.15,1.32,.44l-.22,17.82c0,4.26,.07,7.48,.22,9.68l.22,10.56c0,.3-.44,.44-1.32,.44s-1.32-.14-1.32-.44c0-6.45-1.58-11.07-4.73-13.86Z" fill="#1a1a1a"/>
      <path d="M137.5,7.7l5.28,.44-2.2,108.02c-.15,7.78,1.17,13.28,3.96,16.5,2.78,3.23,7.7,4.84,14.74,4.84,.29,0,.44,.44,.44,1.32s-.15,1.32-.44,1.32c-4.11,0-7.26-.07-9.46-.22l-11.88-.22-11.44,.22c-2.06,.15-4.99,.22-8.8,.22-.3,0-.44-.44-.44-1.32s.14-1.32,.44-1.32c6.16,0,10.59-1.65,13.31-4.95,2.71-3.3,4.14-8.76,4.29-16.39l2.2-108.46Zm150.92,131.12c0,.88-.22,1.32-.66,1.32-4.55,0-8.14-.07-10.78-.22l-15.18-.22-14.08,.22c-2.35,.15-5.65,.22-9.9,.22-.3,0-.44-.44-.44-1.32s.14-1.32,.44-1.32c4.98,0,8.69-.4,11.11-1.21,2.42-.8,4.03-2.23,4.84-4.29,.8-2.05,1.06-5.28,.77-9.68l-4.18-106.26,7.26-10.12-57.2,132.66c-.3,.59-.88,.88-1.76,.88-.74,0-1.4-.29-1.98-.88L141.46,20.9c-2.5-5.42-5.54-9.38-9.13-11.88-3.6-2.49-7.96-3.74-13.09-3.74-.3,0-.44-.44-.44-1.32s.14-1.32,.44-1.32l8.14,.22c1.46,.15,3.52,.22,6.16,.22s4.87-.07,6.71-.22c1.83-.14,3.26-.22,4.29-.22,1.9,0,3.48,.7,4.73,2.09,1.24,1.4,3.04,4.51,5.39,9.35l50.16,105.6-6.82,11.44L251.68,8.14c1.61-3.67,3.81-5.5,6.6-5.5,.73,0,1.79,.08,3.19,.22,1.39,.15,3.26,.22,5.61,.22l10.34-.22c1.61-.14,4.03-.22,7.26-.22,.29,0,.44,.44,.44,1.32s-.15,1.32-.44,1.32c-7.48,0-12.8,1.07-15.95,3.19-3.16,2.13-4.59,6.13-4.29,11.99l4.4,101.86c.14,4.55,.69,7.85,1.65,9.9,.95,2.06,2.67,3.45,5.17,4.18,2.49,.74,6.52,1.1,12.1,1.1,.44,0,.66,.44,.66,1.32Z" fill="#1a1a1a"/>
      <path d="M383.9,67.32c6.6,3.23,11.69,7.67,15.29,13.31,3.59,5.65,5.39,11.99,5.39,19.03,0,7.78-1.91,14.81-5.72,21.12-3.82,6.31-9.06,11.26-15.73,14.85-6.68,3.59-14.12,5.39-22.33,5.39-4.84,0-10.12-.22-15.84-.66-2.06-.15-4.48-.29-7.26-.44-2.79-.14-5.87-.22-9.24-.22l-14.96,.22c-2.64,.15-6.38,.22-11.22,.22-.3,0-.44-.44-.44-1.32s.14-1.32,.44-1.32c5.57,0,9.68-.4,12.32-1.21,2.64-.8,4.47-2.23,5.5-4.29,1.02-2.05,1.54-5.28,1.54-9.68V20.46c0-4.4-.48-7.62-1.43-9.68-.96-2.05-2.75-3.48-5.39-4.29-2.64-.8-6.68-1.21-12.1-1.21-.44,0-.66-.44-.66-1.32s.22-1.32,.66-1.32l10.78,.22c6.16,.3,11.14,.44,14.96,.44,2.64,0,5.09-.07,7.37-.22,2.27-.14,4.21-.29,5.83-.44,4.69-.44,8.94-.66,12.76-.66,12.32,0,21.56,2.68,27.72,8.03,6.16,5.36,9.24,12.36,9.24,21.01s-2.97,15.29-8.91,21.23c-5.94,5.94-13.83,10.16-23.65,12.65l2.42-2.42c8.5,0,16.06,1.62,22.66,4.84ZM341,6.16c-1.76,.59-3.08,1.98-3.96,4.18-.88,2.2-1.32,5.72-1.32,10.56v43.12l-7.04-1.76c6.3,.44,11.95,.66,16.94,.66,10.7,0,18.62-2.75,23.76-8.25,5.13-5.5,7.7-12.79,7.7-21.89,0-8.21-2.24-14.85-6.71-19.91-4.48-5.06-11.41-7.59-20.79-7.59-3.96,0-6.82,.3-8.58,.88Zm40.37,122.65c5.2-5.5,7.81-13.38,7.81-23.65,0-11.14-3.27-20.17-9.79-27.06-6.53-6.89-15.51-10.41-26.95-10.56-8.36-.29-16.06,.08-23.1,1.1l6.38-2.42v56.1c0,3.81,.55,6.75,1.65,8.8,1.1,2.06,3.22,3.56,6.38,4.51,3.15,.96,7.73,1.43,13.75,1.43,10.7,0,18.66-2.75,23.87-8.25Z" fill="#1a1a1a"/>
      <path d="M508.85,9.9c6.3,5.28,9.46,12.32,9.46,21.12,0,7.78-2.28,14.85-6.82,21.23-4.55,6.38-10.67,11.44-18.37,15.18-7.7,3.74-15.95,5.61-24.75,5.61-.88,0-4.18-.22-9.9-.66v49.94c0,4.55,.44,7.85,1.32,9.9,.88,2.06,2.6,3.45,5.17,4.18,2.56,.74,6.63,1.1,12.21,1.1,.44,0,.66,.44,.66,1.32s-.22,1.32-.66,1.32c-4.55,0-8.14-.07-10.78-.22l-15.18-.22-14.96,.22c-2.64,.15-6.38,.22-11.22,.22-.3,0-.44-.44-.44-1.32s.14-1.32,.44-1.32c5.57,0,9.68-.4,12.32-1.21,2.64-.8,4.47-2.23,5.5-4.29,1.02-2.05,1.54-5.28,1.54-9.68V20.46c0-4.4-.48-7.62-1.43-9.68-.96-2.05-2.72-3.48-5.28-4.29-2.57-.8-6.64-1.21-12.21-1.21-.44,0-.66-.44-.66-1.32s.22-1.32,.66-1.32l10.78,.22c6.16,.3,11.14,.44,14.96,.44,3.22,0,6.23-.07,9.02-.22,2.78-.14,5.13-.29,7.04-.44,5.57-.44,10.48-.66,14.74-.66,11.58,0,20.53,2.64,26.84,7.92Zm-13.09,2.86c-5.06-4.98-12.43-7.48-22.11-7.48-5.72,0-9.68,1.03-11.88,3.08-2.2,2.06-3.3,6.24-3.3,12.54v46.2c3.52,.59,7.84,.88,12.98,.88,11.44,0,19.61-2.49,24.53-7.48,4.91-4.98,7.37-12.68,7.37-23.1,0-11.44-2.53-19.65-7.59-24.64Zm20.68,108.57c-10.34-12.54-22.77-29.81-37.29-51.81l12.32-3.74c12.76,18.34,23.43,32.6,32.01,42.79,8.58,10.2,16.17,17.56,22.77,22.11,6.6,4.55,13.05,6.82,19.36,6.82,.44,0,.66,.44,.66,1.32s-.22,1.32-.66,1.32h-28.16c-3.67,0-10.67-6.27-21.01-18.81Z" fill="#1a1a1a"/>
      <path d="M718.29,138.82c0,.88-.3,1.32-.88,1.32-2.79,0-7.12-.14-12.98-.44-5.87-.29-10.12-.44-12.76-.44-3.23,0-7.34,.15-12.32,.44-4.7,.3-8.29,.44-10.78,.44-.59,0-.88-.44-.88-1.32s.29-1.32,.88-1.32c5.57,0,9.57-.51,11.99-1.54,2.42-1.02,3.63-2.86,3.63-5.5,0-2.2-.88-5.28-2.64-9.24l-48.84-103.18,5.5-6.82-42.68,100.98c-2.06,4.99-3.08,9.1-3.08,12.32,0,8.66,7.18,12.98,21.56,12.98,.73,0,1.1,.44,1.1,1.32s-.37,1.32-1.1,1.32c-2.64,0-6.46-.14-11.44-.44-5.58-.29-10.42-.44-14.52-.44-3.82,0-8.22,.15-13.2,.44-4.4,.3-8.07,.44-11,.44-.73,0-1.1-.44-1.1-1.32s.37-1.32,1.1-1.32c4.1,0,7.59-.77,10.45-2.31s5.57-4.25,8.14-8.14c2.56-3.88,5.39-9.5,8.47-16.83L637.33,.66c.29-.44,.8-.66,1.54-.66s1.17,.22,1.32,.66l51.92,109.34c4.98,10.86,9.24,18.15,12.76,21.89,3.52,3.74,7.7,5.61,12.54,5.61,.58,0,.88,.44,.88,1.32Zm-109.78-63.58h58.3l1.54,4.4h-62.04l2.2-4.4Z" fill="#1a1a1a"/>
      <path d="M829.17,2.2c6.3,1.32,12.61,3.6,18.92,6.82,1.02,.59,1.61,1.1,1.76,1.54,.14,.44,.36,1.54,.66,3.3l2.64,26.18c0,.44-.4,.7-1.21,.77-.81,.08-1.29-.11-1.43-.55-6.75-24.49-21.86-36.74-45.32-36.74-12.32,0-23.21,2.72-32.67,8.14-9.46,5.43-16.76,13.17-21.89,23.21-5.14,10.05-7.7,21.75-7.7,35.09s2.86,24.46,8.58,35.09c5.72,10.64,13.38,19.03,22.99,25.19,9.6,6.16,20.05,9.24,31.35,9.24,12.02,0,21.78-2.93,29.26-8.8,7.48-5.86,13.2-14.81,17.16-26.84,0-.29,.36-.44,1.1-.44,1.03,0,1.54,.22,1.54,.66l-2.2,24.2c-.15,1.76-.37,2.86-.66,3.3-.29,.44-.88,.96-1.76,1.54-7.63,3.67-14.78,6.24-21.45,7.7-6.68,1.46-14.34,2.2-22.99,2.2-15.4,0-29.15-3.04-41.25-9.13-12.1-6.08-21.53-14.63-28.27-25.63-6.75-11-10.12-23.61-10.12-37.84s3.44-25.99,10.34-36.63c6.89-10.63,16.39-18.88,28.49-24.75,12.1-5.86,25.7-8.8,40.81-8.8,9.24,0,17.01,.66,23.32,1.98Z" fill="#1a1a1a"/>
      <path d="M875.37,138.82c0-.88,.14-1.32,.44-1.32,5.57,0,9.64-.37,12.21-1.1,2.56-.73,4.32-2.16,5.28-4.29,.95-2.12,1.43-5.39,1.43-9.79V20.46c0-4.4-.48-7.62-1.43-9.68-.96-2.05-2.72-3.48-5.28-4.29-2.57-.8-6.64-1.21-12.21-1.21-.3,0-.44-.44-.44-1.32s.14-1.32,.44-1.32h88.44c1.32,0,1.98,.66,1.98,1.98l.44,27.06c0,.44-.41,.7-1.21,.77-.81,.08-1.21-.11-1.21-.55-.44-7.77-2.79-13.82-7.04-18.15-4.26-4.32-9.9-6.49-16.94-6.49h-13.42c-5.14,0-8.95,.41-11.44,1.21-2.5,.81-4.22,2.17-5.17,4.07-.96,1.91-1.43,4.92-1.43,9.02V121.44c0,3.96,.47,6.93,1.43,8.91,.95,1.98,2.6,3.34,4.95,4.07,2.34,.74,6.01,1.1,11,1.1h17.6c7.04,0,12.9-2.49,17.6-7.48,4.69-4.98,7.84-11.88,9.46-20.68,0-.29,.29-.44,.88-.44,.44,0,.84,.11,1.21,.33,.36,.22,.55,.41,.55,.55-1.32,9.24-1.98,18.92-1.98,29.04,0,1.18-.26,2.02-.77,2.53-.52,.52-1.43,.77-2.75,.77h-92.18c-.3,0-.44-.44-.44-1.32Zm75.57-63.8c-3.16-2.78-8.4-4.18-15.73-4.18h-33v-4.62h33.66c7.04,0,12.06-1.17,15.07-3.52,3-2.34,4.51-6.3,4.51-11.88,0-.29,.44-.44,1.32-.44s1.32,.15,1.32,.44l-.22,17.82c0,4.26,.07,7.48,.22,9.68l.22,10.56c0,.3-.44,.44-1.32,.44s-1.32-.14-1.32-.44c0-6.45-1.58-11.07-4.73-13.86Z" fill="#1a1a1a"/>
    </g>
  </g>
</svg>