<?xml version="1.0" encoding="UTF-8"?>
<svg id="_圖層_2" data-name="圖層 2" xmlns="http://www.w3.org/2000/svg" viewBox="0 0 850.73 142.56">
  <g id="_圖層_1-2" data-name="圖層 1">
    <g>
      <path d="M18.37,10.56c-.96-2.05-2.75-3.48-5.39-4.29-2.64-.8-6.75-1.21-12.32-1.21-.3,0-.44-.44-.44-1.32s.14-1.32,.44-1.32l11.22,.22c6.16,.3,11.07,.44,14.74,.44,4.25,0,9.6-.14,16.06-.44l10.56-.22c.29,0,.44,.44,.44,1.32s-.15,1.32-.44,1.32c-5.58,0-9.72,.44-12.43,1.32-2.71,.88-4.55,2.39-5.5,4.51-.96,2.13-1.43,5.39-1.43,9.79V122.1c0,4.4,.47,7.67,1.43,9.79,.95,2.13,2.75,3.56,5.39,4.29,2.64,.74,6.82,1.1,12.54,1.1,.29,0,.44,.44,.44,1.32s-.15,1.32-.44,1.32c-4.55,0-8.14-.07-10.78-.22l-15.84-.22-15.18,.22c-2.64,.15-6.31,.22-11,.22-.3,0-.44-.44-.44-1.32s.14-1.32,.44-1.32c5.57,0,9.71-.36,12.43-1.1,2.71-.73,4.54-2.16,5.5-4.29,.95-2.12,1.43-5.39,1.43-9.79V20.24c0-4.4-.48-7.62-1.43-9.68Zm7.81,55.44H124.52v4.62H26.18v-4.62ZM116.93,10.89c-.96-2.12-2.75-3.63-5.39-4.51s-6.82-1.32-12.54-1.32c-.44,0-.66-.44-.66-1.32s.22-1.32,.66-1.32l10.56,.22c6.45,.3,11.8,.44,16.06,.44,3.96,0,9.02-.14,15.18-.44l10.78-.22c.44,0,.66,.44,.66,1.32s-.22,1.32-.66,1.32c-5.58,0-9.68,.41-12.32,1.21-2.64,.81-4.44,2.24-5.39,4.29-.96,2.06-1.43,5.28-1.43,9.68V122.1c0,4.4,.47,7.67,1.43,9.79,.95,2.13,2.75,3.56,5.39,4.29,2.64,.74,6.74,1.1,12.32,1.1,.44,0,.66,.44,.66,1.32s-.22,1.32-.66,1.32c-4.55,0-8.14-.07-10.78-.22l-15.18-.22-16.06,.22c-2.64,.15-6.16,.22-10.56,.22-.44,0-.66-.44-.66-1.32s.22-1.32,.66-1.32c5.72,0,9.9-.36,12.54-1.1,2.64-.73,4.43-2.16,5.39-4.29,.95-2.12,1.43-5.39,1.43-9.79V20.68c0-4.4-.48-7.66-1.43-9.79Z" fill="#1a1a1a"/>
      <path d="M203.83,132.99c-10.64-6.38-18.85-15.03-24.64-25.96-5.8-10.92-8.69-22.84-8.69-35.75,0-15.1,3.81-28.05,11.44-38.83,7.62-10.78,17.41-18.88,29.37-24.31C223.26,2.72,235.47,0,247.94,0c13.93,0,26.18,3.27,36.74,9.79,10.56,6.53,18.66,15.15,24.31,25.85,5.64,10.71,8.47,22.08,8.47,34.1,0,13.35-3.52,25.6-10.56,36.74-7.04,11.15-16.47,19.95-28.27,26.4-11.81,6.46-24.61,9.68-38.39,9.68s-25.78-3.19-36.41-9.57Zm71.06-2.31c7.99-4.84,14.3-11.91,18.92-21.23,4.62-9.31,6.93-20.49,6.93-33.55,0-13.78-2.57-26.03-7.7-36.74-5.14-10.7-12.36-19.06-21.67-25.08-9.32-6.01-20.21-9.02-32.67-9.02-16.14,0-28.75,5.21-37.84,15.62-9.1,10.42-13.64,24.72-13.64,42.9,0,13.79,2.56,26.37,7.7,37.73,5.13,11.37,12.32,20.32,21.56,26.84,9.24,6.53,19.72,9.79,31.46,9.79,9.97,0,18.95-2.42,26.95-7.26Z" fill="#1a1a1a"/>
      <path d="M356.62,7.48l5.28,.44-2.2,108.02c-.15,7.78,1.17,13.28,3.96,16.5,2.78,3.23,7.7,4.84,14.74,4.84,.29,0,.44,.44,.44,1.32s-.15,1.32-.44,1.32c-4.11,0-7.26-.07-9.46-.22l-11.88-.22-11.44,.22c-2.06,.15-4.99,.22-8.8,.22-.3,0-.44-.44-.44-1.32s.14-1.32,.44-1.32c6.16,0,10.59-1.65,13.31-4.95,2.71-3.3,4.14-8.76,4.29-16.39l2.2-108.46Zm150.92,131.12c0,.88-.22,1.32-.66,1.32-4.55,0-8.14-.07-10.78-.22l-15.18-.22-14.08,.22c-2.35,.15-5.65,.22-9.9,.22-.3,0-.44-.44-.44-1.32s.14-1.32,.44-1.32c4.98,0,8.69-.4,11.11-1.21,2.42-.8,4.03-2.23,4.84-4.29,.8-2.05,1.06-5.28,.77-9.68l-4.18-106.26,7.26-10.12-57.2,132.66c-.3,.59-.88,.88-1.76,.88-.74,0-1.4-.29-1.98-.88l-55.22-117.7c-2.5-5.42-5.54-9.38-9.13-11.88-3.6-2.49-7.96-3.74-13.09-3.74-.3,0-.44-.44-.44-1.32s.14-1.32,.44-1.32l8.14,.22c1.46,.15,3.52,.22,6.16,.22s4.87-.07,6.71-.22c1.83-.14,3.26-.22,4.29-.22,1.9,0,3.48,.7,4.73,2.09,1.25,1.4,3.04,4.51,5.39,9.35l50.16,105.6-6.82,11.44L470.79,7.92c1.61-3.66,3.81-5.5,6.6-5.5,.73,0,1.79,.08,3.19,.22,1.39,.15,3.26,.22,5.61,.22l10.34-.22c1.61-.14,4.03-.22,7.26-.22,.29,0,.44,.44,.44,1.32s-.15,1.32-.44,1.32c-7.48,0-12.8,1.07-15.95,3.19-3.16,2.13-4.58,6.13-4.29,11.99l4.4,101.86c.14,4.55,.69,7.85,1.65,9.9,.95,2.06,2.67,3.45,5.17,4.18,2.49,.74,6.52,1.1,12.1,1.1,.44,0,.66,.44,.66,1.32Z" fill="#1a1a1a"/>
      <path d="M520.95,138.6c0-.88,.14-1.32,.44-1.32,5.57,0,9.64-.36,12.21-1.1,2.56-.73,4.32-2.16,5.28-4.29,.95-2.12,1.43-5.39,1.43-9.79V20.24c0-4.4-.48-7.62-1.43-9.68-.96-2.05-2.72-3.48-5.28-4.29-2.57-.8-6.64-1.21-12.21-1.21-.3,0-.44-.44-.44-1.32s.14-1.32,.44-1.32h88.44c1.32,0,1.98,.66,1.98,1.98l.44,27.06c0,.44-.41,.7-1.21,.77-.81,.08-1.21-.11-1.21-.55-.44-7.77-2.79-13.82-7.04-18.15-4.25-4.32-9.9-6.49-16.94-6.49h-13.42c-5.14,0-8.95,.41-11.44,1.21-2.5,.81-4.22,2.17-5.17,4.07-.96,1.91-1.43,4.92-1.43,9.02V121.22c0,3.96,.47,6.93,1.43,8.91,.95,1.98,2.6,3.34,4.95,4.07,2.34,.74,6.01,1.1,11,1.1h17.6c7.04,0,12.9-2.49,17.6-7.48,4.69-4.98,7.84-11.88,9.46-20.68,0-.29,.29-.44,.88-.44,.44,0,.84,.11,1.21,.33,.36,.22,.55,.41,.55,.55-1.32,9.24-1.98,18.92-1.98,29.04,0,1.18-.26,2.02-.77,2.53-.52,.52-1.43,.77-2.75,.77h-92.18c-.3,0-.44-.44-.44-1.32Zm75.57-63.8c-3.16-2.78-8.4-4.18-15.73-4.18h-33v-4.62h33.66c7.04,0,12.06-1.17,15.07-3.52,3-2.34,4.51-6.3,4.51-11.88,0-.29,.44-.44,1.32-.44s1.32,.15,1.32,.44l-.22,17.82c0,4.26,.07,7.48,.22,9.68l.22,10.56c0,.3-.44,.44-1.32,.44s-1.32-.14-1.32-.44c0-6.45-1.58-11.07-4.73-13.86Z" fill="#1a1a1a"/>
      <path d="M726.65,132c.88,2.06,2.6,3.45,5.17,4.18,2.56,.74,6.63,1.1,12.21,1.1,.44,0,.66,.44,.66,1.32s-.22,1.32-.66,1.32c-4.4,0-7.92-.07-10.56-.22l-15.62-.22-15.18,.22c-2.64,.15-6.24,.22-10.78,.22-.44,0-.66-.44-.66-1.32s.22-1.32,.66-1.32c5.57,0,9.64-.36,12.21-1.1,2.56-.73,4.33-2.16,5.28-4.29,.95-2.12,1.43-5.39,1.43-9.79V20.24c0-4.4-.48-7.62-1.43-9.68-.96-2.05-2.72-3.48-5.28-4.29-2.57-.8-6.64-1.21-12.21-1.21-.44,0-.66-.44-.66-1.32s.22-1.32,.66-1.32l10.78,.22c6.16,.3,11.22,.44,15.18,.44,4.4,0,9.68-.14,15.84-.44l10.34-.22c.44,0,.66,.44,.66,1.32s-.22,1.32-.66,1.32c-5.43,0-9.46,.44-12.1,1.32-2.64,.88-4.4,2.39-5.28,4.51-.88,2.13-1.32,5.39-1.32,9.79V122.1c0,4.55,.44,7.85,1.32,9.9Z" fill="#1a1a1a"/>
      <path d="M790.67,43.12c2.78,4.26,6.16,7.81,10.12,10.67,3.96,2.86,9.53,6.49,16.72,10.89,7.62,4.55,13.56,8.36,17.82,11.44,4.25,3.08,7.88,7.01,10.89,11.77,3,4.77,4.51,10.45,4.51,17.05,0,7.04-1.76,13.42-5.28,19.14-3.52,5.72-8.69,10.23-15.51,13.53-6.82,3.3-15,4.95-24.53,4.95-11.3,0-21.64-2.57-31.02-7.7-.74-.44-1.21-.95-1.43-1.54-.22-.58-.41-1.46-.55-2.64l-2.86-29.92c-.15-.58,.18-.95,.99-1.1,.8-.14,1.28,.08,1.43,.66,2.2,10.42,6.52,19.47,12.98,27.17,6.45,7.7,14.96,11.55,25.52,11.55,7.33,0,13.53-2.01,18.59-6.05,5.06-4.03,7.59-10.45,7.59-19.25,0-6.6-1.47-12.32-4.4-17.16-2.94-4.84-6.49-8.83-10.67-11.99-4.18-3.15-9.87-6.85-17.05-11.11-7.04-4.25-12.58-7.92-16.61-11-4.04-3.08-7.45-6.96-10.23-11.66-2.79-4.69-4.18-10.19-4.18-16.5,0-7.33,1.94-13.6,5.83-18.81,3.88-5.2,8.94-9.09,15.18-11.66,6.23-2.56,12.87-3.85,19.91-3.85,8.65,0,17.23,1.76,25.74,5.28,2.2,.74,3.3,1.98,3.3,3.74l1.54,25.08c0,.74-.41,1.1-1.21,1.1s-1.29-.29-1.43-.88c-1.03-7.62-4.11-14.7-9.24-21.23-5.14-6.52-12.54-9.79-22.22-9.79-8.22,0-14.34,2.39-18.37,7.15-4.04,4.77-6.05,10.67-6.05,17.71,0,5.72,1.39,10.71,4.18,14.96Z" fill="#1a1a1a"/>
    </g>
  </g>
</svg>