<?xml version="1.0" encoding="UTF-8"?>
<svg id="_圖層_2" data-name="圖層 2" xmlns="http://www.w3.org/2000/svg" viewBox="0 0 1925.71 1081.48">
  <g id="scroll_ball_path_svg" data-name="scroll ball path svg">
    <path d="M.31,778.98c102.81,81.61,197.08,119.83,268.71,139.35,160.67,43.8,175.91,8.66,363.87,35.61,214.22,30.72,240.85,70.86,366.97,60.39,122.14-10.14,299.88-68.14,309.68-157.55,7.37-67.29-80.53-149.95-173.42-178.45-137.84-42.29-202.68,60.45-410.32,61.94-130.89,.94-292.95-38.54-301.94-100.65-7.47-51.62,90.04-124.09,188.9-148.65,184.19-45.75,270.75,100.78,462.97,69.68,144.68-23.41,276.47-134.27,263.23-193.55-15.76-70.52-241.01-87.2-396.39-72.77-166.53,15.47-306.09,71.63-520.26,159.48-206.88,84.86-271.17,129.19-323.61,94.45-72.14-47.79-64.61-207.39-12.39-314.77C179.73,41.43,454.39-52.13,569.41,30.86c105.99,76.47-2.92,245.71,111.48,388.4,138.9,173.25,467.95,133.72,594.61,118.5,368.06-44.22,523.22-222.77,610.03-148.97,85.82,72.95,23.84,323.58-103.74,478.45-175.85,213.46-451.05,214.27-495.48,213.69" fill="none" stroke="#000" stroke-miterlimit="10"/>
  </g>
</svg>