<?xml version="1.0" encoding="UTF-8"?>
<svg id="_圖層_2" data-name="圖層 2" xmlns="http://www.w3.org/2000/svg" viewBox="0 0 1848.52 1075.79">
  <g id="scroll_ball_path_svg" data-name="scroll ball path svg">
    <path d="M1843.25,.06c8.52,74.75,12.33,205-49,341-169.45,375.77-660.92,407-723,410-192.67,9.3-466.95-37.88-487-146-15.97-86.14,131.56-199.46,265-236,156.25-42.79,290.98,20.29,395,69,99.11,46.4,382.31,200.21,356,317-32.66,144.94-530.15,180.07-881,114-117.25-22.08-243.5-71.72-496-171C46.21,628.45,7.05,603.5,1.25,566.06c-15.65-101.01,216.74-259.31,450-286,270.45-30.94,486.09,121.43,644,233,119.61,84.51,327.28,256.71,492,562.5" fill="none" stroke="#000" stroke-miterlimit="10"/>
  </g>
</svg>