<?xml version="1.0" encoding="UTF-8"?>
<svg id="_圖層_2" data-name="圖層 2" xmlns="http://www.w3.org/2000/svg" viewBox="0 0 1921 1082.02">
  <g id="scroll_ball_path_svg" data-name="scroll ball path svg">
    <g id="scroll_ball_path_g" data-name="scroll ball path g">
      <path id="scroll_ball_path" data-name="scroll ball path" d="M276.84,1.48c86.65,18.56,13.46,294.69,183.92,405.33,98.01,63.62,169.06,2.74,438.67,19.19,22.05,1.35,441.33,29,457.35,136.23,7.2,48.16-67.72,99.8-140.65,139.11-41.4,17.04-105.88,38.36-185.89,42.21-174.73,8.41-235.79-116.6-383.59-101.69-83.32,8.41-75.67,46.34-227.2,106.49-103.3,41-302.41,100.99-334.41,51.67-28.24-43.54,73.27-172.99,186.88-256.02,188.44-137.73,402.71-142.31,705.21-144.86,332.03-2.8,509.06,51.83,556.69,67.16,167.96,54.03,345.21,112.03,380.64,249.82,31.11,121-62.73,260.2-172.12,321.48-232.55,130.27-584.82-58.79-589.15-182.76-2.11-60.3,77.3-131.92,150.48-140.07,54.61-6.08,74.01,26.72,141.63,34.54,97.26,11.25,211.78-38.71,211.46-75.79-.66-78.02-510.17-144.29-733.73-77.71-100.62,29.97-132.69,45.78-132.69,45.78-91.91,39.99-133.49,77.76-192.11,87.61-7.66,1.29-28.14,1.85-56.82,.91-135.33-4.42-428.4-29.57-515.38-201.47C-80.91,317.3,176.35-20.04,276.84,1.48Z" fill="none" stroke="#000" stroke-miterlimit="10"/>
    </g>
  </g>
</svg>