<?xml version="1.0" encoding="UTF-8"?>
<svg id="_圖層_2" data-name="圖層 2" xmlns="http://www.w3.org/2000/svg" viewBox="0 0 1920.07 1080.58">
  <g id="_圖層_1-2" data-name="圖層 1">
    <path d="M1879.07,.08c10.65,62.58,37.81,269.46-85.85,458-157.52,240.16-440.13,268.21-569.02,281-223.37,22.17-526.3-26.73-549.06-141-15.92-79.96,107.89-179.01,214.63-214,168.74-55.3,380.41,21.44,399.32,121,22.12,116.43-221.53,252.88-358.39,308-24.26,9.77-486.46,188.45-779.66-60C115.43,722.91-20.55,607.69,3.28,476.08c22.56-124.57,177.42-203.85,300.49-209,61.51-2.58,114.8,13.38,229.61,71,204.19,102.49,346.5,208.06,369.37,225,295.99,219.31,443.99,328.96,589.99,395,91.69,41.47,234.56,94.89,427.27,122" fill="#fff" stroke="#000" stroke-miterlimit="10"/>
  </g>
</svg>