<?xml version="1.0" encoding="UTF-8"?>
<svg id="_圖層_2" data-name="圖層 2" xmlns="http://www.w3.org/2000/svg" viewBox="0 0 182.51 33.08">
  <defs>
    <style>
      .cls-1 {
        fill: #fff;
      }

      .cls-2 {
        fill: #221714;
      }

      .cls-3 {
        fill: #807f81;
      }

      .cls-4 {
        fill: #c81d1d;
      }
    </style>
  </defs>
  <g id="_圖層_1-2" data-name="圖層 1">
    <g>
      <g>
        <path class="cls-2" d="M59.57,5.77c1,1.71,2.19,3.98,2.66,5.4l-2.63,1.48c-.31-1.02-.97-2.47-1.63-3.89V31.68h-3.66V10.18h-.03c-.19,2.47-.69,4.84-1.72,6.49-2.47-1.58-2.53-1.61-2.6-1.65,1.1-1.71,1.56-4.87,1.6-7.7l2.75,.43V.64l4.47,.26c-.03,.33-.25,.53-.81,.63V6.6l1.6-.82Zm17.74,4.21c-.28,5.5-.72,12.15-1.19,17.02h3.72v3.69h-19.96v-3.69h12.33c.44-3.92,.84-8.92,1.09-13.5h-6.16c-.59,3.56-1.25,7.08-1.78,9.65l-3.72-.33c1-4.38,2.25-11.52,2.97-17.15h-3.94V2.05h18.62v3.62h-10.2c-.06,.26-.31,.4-.81,.46-.16,1.22-.38,2.5-.56,3.85h9.61Zm-9.54,9.91c1.5,.82,3.47,2.11,4.41,3l-1.85,2.63c-.91-.99-2.85-2.37-4.35-3.29l1.78-2.34Zm.81-5.37c1.38,.59,3.25,1.55,4.22,2.27l-1.63,2.73c-.91-.76-2.75-1.84-4.16-2.54l1.56-2.47Z"/>
        <path class="cls-2" d="M91.03,12.46c-1.56,1.19-3.22,2.3-4.91,3.26-.5-.92-1.53-2.37-2.32-3.16,5.41-2.8,10.61-7.84,12.92-11.92l5.04,.3c-.09,.36-.38,.59-.84,.66,3.04,4.28,8.42,8.43,13.14,10.47-.91,.99-1.78,2.34-2.44,3.56-1.6-.89-3.22-1.94-4.82-3.13v2.34h-15.77v-2.37Zm-2.06,19.29v-13.63h20.02v13.63h-3.85v-1.22h-12.48v1.22h-3.69Zm16.33-20.41c-2.63-2.14-5.01-4.54-6.54-6.75-1.44,2.21-3.69,4.58-6.32,6.75h12.86Zm-.16,10.31h-12.48v5.4h12.48v-5.4Z"/>
        <path class="cls-2" d="M142.75,20.59l3.35,1.25c-.09,.26-.31,.4-.72,.4-.81,1.68-1.94,3.23-3.32,4.64,.63,.99,1.34,1.55,2.13,1.55s1.13-.69,1.31-3.33c.63,.76,1.6,1.58,2.32,1.91-.59,3.72-1.47,4.71-3.75,4.71-1.41,0-3-.53-4.47-2.7-1.41,1.05-3,1.94-4.72,2.63-.41-.69-1.34-1.91-1.97-2.53,2-.72,3.79-1.71,5.29-2.93-.59-1.61-1.06-3.49-1.47-5.6h-3.63l-.13,1.22c1.38,.95,2.97,2.21,3.75,3.1l-1.97,2.63c-.56-.66-1.47-1.48-2.47-2.3-.69,2.44-1.88,4.74-4.16,6.42-.44-.82-1.38-2.01-2.1-2.6,2.75-1.94,3.54-5.1,3.85-8.46h-1.91v-1.22l-1.31,2.04c-.31-.99-.94-2.54-1.56-3.98v14.26h-3.35v-12.35c-.72,2.47-1.6,4.74-2.53,6.32-.34-1.02-1.1-2.47-1.6-3.36,1.66-2.63,3.1-7.24,3.85-11.19h-3.13v-3.59h3.41V.64l4.13,.26c-.03,.3-.22,.49-.78,.59V7.52h2.82v3.59h-2.82v1.78c.66,.99,2.1,3.49,2.88,4.91v-.26h8.29c-.09-.69-.19-1.45-.25-2.17l-2.19,.89c-.03-.33-.09-.69-.16-1.09-1.82,.26-3.54,.53-4.76,.69-.03,.23-.25,.4-.44,.46l-1.06-3.29,.94-.07c.63-.82,1.28-1.84,1.94-2.93-.78-.99-2.03-2.24-3.1-3.16l1.41-2.14,.5,.4c.59-1.38,1.22-3.03,1.56-4.25l3.13,1.38c-.09,.2-.38,.33-.75,.3-.53,1.19-1.41,2.86-2.16,4.18l.81,.86c.63-1.12,1.16-2.21,1.6-3.19l2.13,1.15c-.03-1.61-.06-3.23-.06-4.87l4.1,.23c-.03,.33-.25,.53-.81,.63-.03,1.55-.03,3.06,0,4.61l.94-1.42,.47,.36c.63-1.35,1.25-3,1.6-4.21l3.13,1.38c-.09,.2-.38,.33-.75,.3-.53,1.19-1.44,2.86-2.19,4.15,.31,.3,.59,.59,.84,.89,.63-1.12,1.19-2.24,1.63-3.19l2.91,1.61c-.09,.2-.41,.3-.78,.3-.97,1.71-2.44,4.02-3.82,5.93l1.97-.13c-.16-.49-.34-.95-.53-1.38l2.1-.82c.75,1.58,1.47,3.62,1.66,4.94l-2.25,.99c-.06-.43-.16-.92-.28-1.45l-2.41,.43c.91,.59,1.97,1.45,2.5,2.11l-.63,.63h2.41v3.06h-4.38Zm-9.7-7.94c-.16-.53-.34-1.05-.53-1.55l2.13-.72c.5,1.15,.94,2.6,1.19,3.79h.03c-.22-2.47-.38-5.14-.44-7.87-1.06,1.88-2.63,4.41-4.13,6.49l1.75-.13Zm6.51-.2c.53-.72,1.13-1.58,1.66-2.47-.66-.86-1.66-1.84-2.57-2.7,.03,1.81,.13,3.52,.25,5.2l.66-.03Zm2.6,2.44c-.69,.13-1.31,.23-1.85,.3-.03,.26-.22,.43-.44,.49l-.91-2.5c.13,1.51,.28,3,.47,4.35h2.75c-.5-.46-1.03-.89-1.53-1.25l1.5-1.38Zm-2.19,5.7c.22,1.12,.47,2.14,.75,3.03,.72-.92,1.35-1.94,1.81-3.03h-2.57Z"/>
        <path class="cls-2" d="M160.6,12.72c.88,1.28,3.22,5.14,3.72,6.06l-1.94,2.83c-.38-1.05-1.1-2.6-1.78-4.08v14.16h-3.41v-12.51c-.81,2.6-1.78,4.94-2.88,6.62-.34-1.09-1.13-2.6-1.66-3.49,1.78-2.6,3.44-7.18,4.26-11.13h-3.54v-3.65h3.82V.64l4.22,.26c-.03,.3-.25,.49-.81,.59V7.52h3.16v3.65h-3.16v1.55Zm21.9,10.86v2.9h-1.75v1.65c0,3.19-1.34,3.56-5.88,3.56-.16-.92-.56-2.24-.97-3.13,.69,.03,1.41,.07,1.97,.07,1.28,0,1.41,0,1.41-.53v-1.61h-8.51v5.2h-3.38v-5.2h-2.16v-2.9h2.16V15.49h5.88v-1.22h-7.42v-2.83h3.91v-1.35h-2.6v-2.67h2.6v-1.32h-3.25V3.37h3.25V.64l4.29,.26c-.03,.3-.25,.49-.81,.59v1.88h3.47V.64l4.32,.26c-.03,.33-.25,.49-.81,.59v1.88h3.69v2.73h-3.69v1.32h3.04v2.67h-3.04v1.35h4.13v2.83h-7.7v1.22h6.1v8.1h1.75Zm-11.23-5.37h-2.5v1.32h2.5v-1.32Zm-2.5,3.92v1.45h2.5v-1.45h-2.5Zm2.47-16.03v1.32h3.47v-1.32h-3.47Zm0,3.98v1.35h3.47v-1.35h-3.47Zm6.04,8.13h-2.63v1.32h2.63v-1.32Zm-2.63,5.37h2.63v-1.45h-2.63v1.45Z"/>
      </g>
      <g>
        <rect class="cls-3" width="33.67" height="33.08"/>
        <polygon class="cls-1" points="33.67 16.84 33.67 8.2 25.78 0 16.84 0 21.18 4.35 12.49 4.35 16.84 0 7.89 0 0 8.2 0 16.84 6.48 10.36 27.2 10.36 33.67 16.84"/>
        <path class="cls-1" d="M3.26,13.53V30.18H30.41V13.53H3.26Zm21.45,10.95H8.96v-5.25h15.75v5.25Z"/>
        <rect class="cls-4" x="8.96" y="19.23" width="15.75" height="5.25"/>
      </g>
    </g>
  </g>
</svg>