<?xml version="1.0" encoding="UTF-8"?>
<svg id="_圖層_2" data-name="圖層 2" xmlns="http://www.w3.org/2000/svg" viewBox="0 0 128.02 33.08">
  <g id="_圖層_1-2" data-name="圖層 1">
    <g>
      <g>
        <path d="M49.93,9.57c.64,1.09,1.39,2.53,1.69,3.43l-1.67,.94c-.2-.65-.62-1.57-1.03-2.47v14.56h-2.33V12.38h-.02c-.12,1.57-.44,3.07-1.09,4.12-1.57-1-1.61-1.02-1.65-1.05,.7-1.09,.99-3.1,1.01-4.89l1.75,.27V6.31l2.84,.17c-.02,.21-.16,.33-.52,.4v3.22l1.01-.52Zm11.27,2.68c-.18,3.49-.46,7.72-.76,10.81h2.37v2.34h-12.68v-2.34h7.83c.28-2.49,.54-5.67,.7-8.58h-3.92c-.38,2.26-.79,4.5-1.13,6.13l-2.37-.21c.64-2.78,1.43-7.32,1.89-10.9h-2.5v-2.3h11.83v2.3h-6.48c-.04,.17-.2,.25-.52,.29-.1,.77-.24,1.59-.36,2.45h6.1Zm-6.06,6.3c.95,.52,2.21,1.34,2.8,1.9l-1.17,1.67c-.58-.63-1.81-1.51-2.76-2.09l1.13-1.48Zm.52-3.41c.87,.38,2.07,.98,2.68,1.44l-1.03,1.74c-.58-.48-1.75-1.17-2.64-1.61l.99-1.57Z" fill="#231815"/>
        <path d="M69.92,13.82c-.99,.75-2.05,1.46-3.12,2.07-.32-.59-.97-1.51-1.47-2.01,3.44-1.78,6.74-4.98,8.21-7.57l3.2,.19c-.06,.23-.24,.38-.54,.42,1.93,2.72,5.35,5.35,8.35,6.65-.58,.63-1.13,1.48-1.55,2.26-1.01-.56-2.05-1.23-3.06-1.99v1.48h-10.02v-1.51Zm-1.31,12.26v-8.66h12.72v8.66h-2.44v-.77h-7.93v.77h-2.35Zm10.37-12.97c-1.67-1.36-3.18-2.89-4.15-4.29-.91,1.4-2.35,2.91-4.01,4.29h8.17Zm-.1,6.55h-7.93v3.43h7.93v-3.43Z" fill="#231815"/>
        <path d="M102.77,18.99l2.13,.79c-.06,.17-.2,.25-.46,.25-.52,1.07-1.23,2.05-2.11,2.95,.4,.63,.85,.98,1.35,.98s.72-.44,.83-2.11c.4,.48,1.01,1,1.47,1.21-.38,2.36-.93,2.99-2.39,2.99-.89,0-1.91-.33-2.84-1.71-.89,.67-1.91,1.23-3,1.67-.26-.44-.85-1.21-1.25-1.61,1.27-.46,2.4-1.09,3.36-1.86-.38-1.02-.68-2.22-.93-3.56h-2.31l-.08,.77c.87,.61,1.89,1.4,2.39,1.97l-1.25,1.67c-.36-.42-.93-.94-1.57-1.46-.44,1.55-1.19,3.01-2.64,4.08-.28-.52-.87-1.28-1.33-1.65,1.75-1.23,2.25-3.24,2.44-5.37h-1.21v-.77l-.83,1.3c-.2-.63-.6-1.61-.99-2.53v9.06h-2.13v-7.84c-.46,1.57-1.01,3.01-1.61,4.02-.22-.65-.7-1.57-1.01-2.13,1.05-1.67,1.97-4.6,2.44-7.11h-1.99v-2.28h2.17V6.31l2.62,.17c-.02,.19-.14,.31-.5,.38v3.83h1.79v2.28h-1.79v1.13c.42,.63,1.33,2.22,1.83,3.12v-.17h5.27c-.06-.44-.12-.92-.16-1.38l-1.39,.56c-.02-.21-.06-.44-.1-.69-1.15,.17-2.25,.33-3.02,.44-.02,.15-.16,.25-.28,.29l-.68-2.09,.6-.04c.4-.52,.81-1.17,1.23-1.86-.5-.63-1.29-1.42-1.97-2.01l.89-1.36,.32,.25c.38-.88,.77-1.92,.99-2.7l1.99,.88c-.06,.13-.24,.21-.48,.19-.34,.75-.89,1.82-1.37,2.66l.52,.54c.4-.71,.74-1.4,1.01-2.03l1.35,.73c-.02-1.02-.04-2.05-.04-3.1l2.6,.15c-.02,.21-.16,.33-.52,.4-.02,.98-.02,1.94,0,2.93l.6-.9,.3,.23c.4-.86,.79-1.9,1.01-2.68l1.99,.88c-.06,.13-.24,.21-.48,.19-.34,.75-.91,1.82-1.39,2.64,.2,.19,.38,.38,.54,.56,.4-.71,.75-1.42,1.03-2.03l1.85,1.02c-.06,.13-.26,.19-.5,.19-.62,1.09-1.55,2.55-2.42,3.76l1.25-.08c-.1-.31-.22-.61-.34-.88l1.33-.52c.48,1,.93,2.3,1.05,3.14l-1.43,.63c-.04-.27-.1-.59-.18-.92l-1.53,.27c.58,.38,1.25,.92,1.59,1.34l-.4,.4h1.53v1.94h-2.78Zm-6.16-5.04c-.1-.33-.22-.67-.34-.98l1.35-.46c.32,.73,.6,1.65,.75,2.41h.02c-.14-1.57-.24-3.26-.28-5-.68,1.19-1.67,2.8-2.62,4.12l1.11-.08Zm4.13-.13c.34-.46,.72-1,1.05-1.57-.42-.54-1.05-1.17-1.63-1.71,.02,1.15,.08,2.24,.16,3.3l.42-.02Zm1.65,1.55c-.44,.08-.83,.15-1.17,.19-.02,.17-.14,.27-.28,.31l-.58-1.59c.08,.96,.18,1.9,.3,2.76h1.75c-.32-.29-.66-.56-.97-.79l.95-.88Zm-1.39,3.62c.14,.71,.3,1.36,.48,1.92,.46-.59,.85-1.23,1.15-1.92h-1.63Z" fill="#231815"/>
        <path d="M114.11,13.99c.56,.82,2.05,3.26,2.37,3.85l-1.23,1.8c-.24-.67-.7-1.65-1.13-2.59v8.99h-2.17v-7.95c-.52,1.65-1.13,3.14-1.83,4.2-.22-.69-.72-1.65-1.05-2.22,1.13-1.65,2.19-4.56,2.7-7.07h-2.25v-2.32h2.42V6.31l2.68,.17c-.02,.19-.16,.31-.52,.38v3.83h2.01v2.32h-2.01v.98Zm13.91,6.9v1.84h-1.11v1.05c0,2.03-.85,2.26-3.74,2.26-.1-.59-.36-1.42-.62-1.99,.44,.02,.89,.04,1.25,.04,.81,0,.89,0,.89-.33v-1.02h-5.41v3.3h-2.15v-3.3h-1.37v-1.84h1.37v-5.14h3.74v-.77h-4.71v-1.8h2.48v-.86h-1.65v-1.69h1.65v-.84h-2.07v-1.74h2.07v-1.74l2.72,.17c-.02,.19-.16,.31-.52,.38v1.19h2.21v-1.74l2.74,.17c-.02,.21-.16,.31-.52,.38v1.19h2.35v1.74h-2.35v.84h1.93v1.69h-1.93v.86h2.62v1.8h-4.89v.77h3.88v5.14h1.11Zm-7.14-3.41h-1.59v.84h1.59v-.84Zm-1.59,2.49v.92h1.59v-.92h-1.59Zm1.57-10.19v.84h2.21v-.84h-2.21Zm0,2.53v.86h2.21v-.86h-2.21Zm3.84,5.17h-1.67v.84h1.67v-.84Zm-1.67,3.41h1.67v-.92h-1.67v.92Z" fill="#231815"/>
      </g>
      <g>
        <rect width="33.67" height="33.08" fill="#808082"/>
        <polygon points="33.67 16.84 33.67 8.2 25.78 0 16.84 0 21.18 4.35 12.49 4.35 16.84 0 7.89 0 0 8.2 0 16.84 6.48 10.36 27.2 10.36 33.67 16.84" fill="#fff"/>
        <path d="M3.26,13.53V30.18H30.41V13.53H3.26Zm21.45,10.95H8.96v-5.25h15.75v5.25Z" fill="#fff"/>
        <rect x="8.96" y="19.23" width="15.75" height="5.25" fill="#c91e1d"/>
      </g>
    </g>
  </g>
</svg>