<?xml version="1.0" encoding="UTF-8"?>
<svg id="_圖層_2" data-name="圖層 2" xmlns="http://www.w3.org/2000/svg" viewBox="0 0 562.46 113.78">
  <g id="_圖層_1-2" data-name="圖層 1">
    <g>
      <path d="M113.12,111.54c0,.64-.21,.96-.64,.96-2.03,0-5.17-.1-9.44-.32-4.27-.21-7.36-.32-9.28-.32-2.35,0-5.33,.11-8.96,.32-3.42,.21-6.03,.32-7.84,.32-.43,0-.64-.32-.64-.96s.21-.96,.64-.96c4.05,0,6.96-.37,8.72-1.12,1.76-.75,2.64-2.08,2.64-4,0-1.6-.64-3.84-1.92-6.72L50.88,23.7l4-4.96L23.84,92.18c-1.5,3.63-2.24,6.61-2.24,8.96,0,6.29,5.22,9.44,15.68,9.44,.53,0,.8,.32,.8,.96s-.27,.96-.8,.96c-1.92,0-4.7-.1-8.32-.32-4.05-.21-7.57-.32-10.56-.32-2.78,0-5.97,.11-9.6,.32-3.2,.21-5.87,.32-8,.32-.53,0-.8-.32-.8-.96s.27-.96,.8-.96c2.98,0,5.52-.56,7.6-1.68s4.05-3.09,5.92-5.92c1.87-2.83,3.92-6.9,6.16-12.24L54.24,11.06c.21-.32,.58-.48,1.12-.48s.85,.16,.96,.48l37.76,79.52c3.62,7.9,6.72,13.2,9.28,15.92s5.6,4.08,9.12,4.08c.42,0,.64,.32,.64,.96ZM33.28,65.3h42.4l1.12,3.2H31.68l1.6-3.2Z" fill="#1a1a1a"/>
      <path d="M212.32,113.04c-.96,0-1.62-.24-1.98-.72L165.52,14.94c-2.16-4.8-4.32-8.13-6.48-9.99-2.16-1.86-5.1-2.79-8.82-2.79-.36,0-.54-.36-.54-1.08s.18-1.08,.54-1.08l6.84,.18c3.36,.24,6.06,.36,8.1,.36,4.32,0,9-.12,14.04-.36l7.38-.18c.36,0,.54,.36,.54,1.08s-.18,1.08-.54,1.08c-3.6,0-6.27,.42-8.01,1.26-1.74,.84-2.61,2.28-2.61,4.32,0,1.8,.6,3.96,1.8,6.48l39.96,85.86-6.48,8.64,23.58-58.86,2.7,3.96-23.22,58.5c-.12,.48-.78,.72-1.98,.72ZM319.06,1.08c0,.72-.12,1.08-.36,1.08-4.08,0-7.62,1.08-10.62,3.24-3,2.16-5.58,5.82-7.74,10.98l-38.34,95.94c-.12,.48-.78,.72-1.98,.72-.96,0-1.62-.24-1.98-.72L213.4,14.94c-2.16-4.68-4.32-7.98-6.48-9.9-2.16-1.92-4.98-2.88-8.46-2.88-.36,0-.54-.36-.54-1.08s.18-1.08,.54-1.08l6.84,.18c3.12,.24,5.7,.36,7.74,.36,3.36,0,6.84-.12,10.44-.36l4.86-.18c.36,0,.54,.36,.54,1.08s-.18,1.08-.54,1.08c-2.16,0-3.72,.21-4.68,.63-.96,.42-1.44,1.17-1.44,2.25,0,1.44,1.08,4.5,3.24,9.18l40.14,85.86-6.48,8.64L296.38,15.66c.96-2.52,1.44-4.5,1.44-5.94,0-2.64-1.11-4.56-3.33-5.76-2.22-1.2-5.67-1.8-10.35-1.8-.36,0-.54-.36-.54-1.08s.18-1.08,.54-1.08l7.56,.18c4.08,.24,7.74,.36,10.98,.36,2.4,0,5.16-.12,8.28-.36l7.74-.18c.24,0,.36,.36,.36,1.08Zm-67.5,6.3c0-3.48-2.58-5.22-7.74-5.22-.36,0-.54-.36-.54-1.08s.18-1.08,.54-1.08l4.14,.18c2.4,.24,4.92,.36,7.56,.36,2.4,0,5.16-.12,8.28-.36l7.38-.18c.24,0,.36,.36,.36,1.08s-.12,1.08-.36,1.08c-4.08,0-7.53,1.05-10.35,3.15-2.82,2.1-5.31,5.79-7.47,11.07l-14.94,37.44-2.7-3.96,13.68-34.56c1.44-3.24,2.16-5.88,2.16-7.92Z" fill="#1a1a1a"/>
      <path d="M330.22,110.5c-2.19-2.08-3.28-4.72-3.28-7.92s1.28-5.97,3.84-8.32c2.56-2.34,6.77-4.58,12.64-6.72l19.2-7.2,.48,2.08-16.96,6.56c-2.99,1.17-5.15,2.54-6.48,4.08-1.33,1.55-2,3.39-2,5.52,0,2.56,.83,4.72,2.48,6.48,1.65,1.76,3.81,2.64,6.48,2.64,2.13,0,4.69-.85,7.68-2.56l10.08-6.08,.32,2.08-11.84,7.68c-2.67,1.71-5.01,2.94-7.04,3.68-2.03,.75-4.16,1.12-6.4,1.12-3.95,0-7.02-1.04-9.2-3.12Zm36.72,3.28c-1.6,0-2.99-1.23-4.16-3.68-1.17-2.45-1.76-5.71-1.76-9.76v-30.24c0-11.95-3.36-17.92-10.08-17.92-3.63,0-6.38,1.2-8.24,3.6-1.87,2.4-3.12,5.15-3.76,8.24-.43,2.03-1.04,3.63-1.84,4.8-.8,1.18-2.21,1.76-4.24,1.76-1.71,0-3.01-.48-3.92-1.44-.91-.96-1.36-2.08-1.36-3.36,0-2.56,1.65-5.12,4.96-7.68,3.31-2.56,7.25-4.69,11.84-6.4,4.58-1.71,8.69-2.56,12.32-2.56,4.37,0,7.68,1.39,9.92,4.16,2.24,2.78,3.36,6.78,3.36,12v29.92c0,3.73,.48,6.45,1.44,8.16,.96,1.71,2.5,2.56,4.64,2.56s4.8-.69,8-2.08h.32c.42,0,.69,.24,.8,.72,.1,.48-.06,.83-.48,1.04l-16.48,7.84c-.43,.21-.86,.32-1.28,.32Z" fill="#1a1a1a"/>
      <path d="M391.74,111.54c0-.64,.16-.96,.48-.96,2.88,0,5.01-.29,6.4-.88,1.39-.58,2.32-1.62,2.8-3.12,.48-1.49,.72-3.84,.72-7.04v-31.68c0-3.62-.43-6.24-1.28-7.84-.85-1.6-2.29-2.4-4.32-2.4-1.71,0-4.59,.8-8.64,2.4h-.32c-.43,0-.72-.24-.88-.72s-.03-.82,.4-1.04l18.56-8.8c.21-.1,.53-.16,.96-.16,.96,0,1.97,1.23,3.04,3.68,1.07,2.46,1.6,5.6,1.6,9.44v37.12c0,3.2,.4,5.55,1.2,7.04,.8,1.5,2.26,2.54,4.4,3.12,2.13,.59,5.44,.88,9.92,.88,.42,0,.64,.32,.64,.96s-.22,.96-.64,.96c-3.42,0-6.13-.05-8.16-.16l-11.84-.16-8.8,.16c-1.39,.11-3.31,.16-5.76,.16-.32,0-.48-.32-.48-.96Zm28.64-58.48c3.09-2.5,5.97-3.76,8.64-3.76,2.34,0,4.58,.64,6.72,1.92,2.13,1.28,3.2,2.83,3.2,4.64,0,1.39-.48,2.56-1.44,3.52-.96,.96-2.24,1.44-3.84,1.44-.96,0-1.79-.19-2.48-.56-.7-.37-1.52-.93-2.48-1.68-.96-.85-1.87-1.49-2.72-1.92-.85-.43-1.87-.64-3.04-.64-1.6,0-3.36,.8-5.28,2.4s-5.17,5.18-9.76,10.72l-.64-1.76c5.65-7.04,10.02-11.81,13.12-14.32Z" fill="#1a1a1a"/>
      <path d="M449.98,111.54c0-.64,.16-.96,.48-.96,2.88,0,5.01-.29,6.4-.88,1.39-.58,2.32-1.62,2.8-3.12,.48-1.49,.72-3.84,.72-7.04v-31.68c0-3.62-.43-6.24-1.28-7.84-.85-1.6-2.29-2.4-4.32-2.4-1.71,0-4.59,.8-8.64,2.4h-.32c-.43,0-.72-.24-.88-.72s-.03-.82,.4-1.04l18.56-8.8c.21-.1,.53-.16,.96-.16,.96,0,1.97,1.23,3.04,3.68,1.07,2.46,1.6,5.6,1.6,9.44v37.12c0,3.2,.24,5.55,.72,7.04,.48,1.5,1.41,2.54,2.8,3.12,1.38,.59,3.52,.88,6.4,.88,.32,0,.48,.32,.48,.96s-.16,.96-.48,.96c-2.46,0-4.38-.05-5.76-.16l-8.64-.16-8.8,.16c-1.39,.11-3.31,.16-5.76,.16-.32,0-.48-.32-.48-.96Zm41.12,0c0-.64,.16-.96,.48-.96,2.88,0,5.01-.29,6.4-.88,1.39-.58,2.32-1.62,2.8-3.12,.48-1.49,.72-3.84,.72-7.04v-25.44c0-6.29-1.12-10.98-3.36-14.08-2.24-3.09-5.66-4.64-10.24-4.64-3.84,0-7.68,1.25-11.52,3.76-3.84,2.51-7.15,5.9-9.92,10.16l-.64-1.92c4.48-6.29,8.93-10.9,13.36-13.84,4.42-2.93,9.04-4.4,13.84-4.4,5.65,0,10,1.6,13.04,4.8,3.04,3.2,4.56,7.95,4.56,14.24v31.36c0,3.2,.26,5.55,.8,7.04,.53,1.5,1.49,2.54,2.88,3.12,1.38,.59,3.52,.88,6.4,.88,.32,0,.48,.32,.48,.96s-.16,.96-.48,.96c-2.46,0-4.43-.05-5.92-.16l-8.64-.16-8.8,.16c-1.39,.11-3.31,.16-5.76,.16-.32,0-.48-.32-.48-.96Zm41.28,0c0-.64,.16-.96,.48-.96,2.88,0,5.01-.29,6.4-.88,1.38-.58,2.34-1.65,2.88-3.2,.53-1.54,.8-3.87,.8-6.96v-25.44c0-6.29-1.12-10.98-3.36-14.08-2.24-3.09-5.71-4.64-10.4-4.64-3.74,0-7.55,1.25-11.44,3.76-3.9,2.51-7.23,5.9-10,10.16l-.64-1.92c4.48-6.29,8.93-10.9,13.36-13.84,4.42-2.93,9.09-4.4,14-4.4,5.65,0,9.97,1.6,12.96,4.8,2.98,3.2,4.48,8.06,4.48,14.56v31.04c0,3.2,.27,5.55,.8,7.04,.53,1.5,1.49,2.54,2.88,3.12,1.38,.59,3.52,.88,6.4,.88,.32,0,.48,.32,.48,.96s-.16,.96-.48,.96c-2.46,0-4.43-.05-5.92-.16l-8.64-.16-8.64,.16c-1.49,.11-3.47,.16-5.92,.16-.32,0-.48-.32-.48-.96Z" fill="#1a1a1a"/>
    </g>
  </g>
</svg>