<?xml version="1.0" encoding="UTF-8"?>
<svg id="_圖層_2" data-name="圖層 2" xmlns="http://www.w3.org/2000/svg" viewBox="0 0 66.73 61.4">
  <g id="_圖層_1-2" data-name="圖層 1">
    <path d="M0,54.35H7.99V.85c0-.47,.39-.85,.85-.85h27.08c.47,0,.85,.39,.85,.85V20.91h23.96c.47,0,.85,.39,.85,.85V54.34h5.14v7.05H0v-7.05H0ZM14.84,8.05h5.54c.17,0,.31,.14,.31,.31v6.71c0,.17-.14,.31-.31,.31h-5.54c-.17,0-.31-.14-.31-.31v-6.71c0-.17,.14-.31,.31-.31h0Zm9.38,33.39h5.54c.17,0,.31,.14,.31,.31v6.71c0,.17-.14,.31-.31,.31h-5.54c-.17,0-.31-.14-.31-.31v-6.71c0-.17,.14-.31,.31-.31h0Zm-9.38,0h5.54c.17,0,.31,.14,.31,.31v6.71c0,.17-.14,.31-.31,.31h-5.54c-.17,0-.31-.14-.31-.31v-6.71c0-.17,.14-.31,.31-.31h0Zm9.38-11.13h5.54c.17,0,.31,.14,.31,.31v6.71c0,.17-.14,.31-.31,.31h-5.54c-.17,0-.31-.14-.31-.31v-6.71c0-.17,.14-.31,.31-.31h0Zm-9.38,0h5.54c.17,0,.31,.14,.31,.31v6.71c0,.17-.14,.31-.31,.31h-5.54c-.17,0-.31-.14-.31-.31v-6.71c0-.17,.14-.31,.31-.31h0Zm9.38-11.13h5.54c.17,0,.31,.14,.31,.31v6.71c0,.17-.14,.31-.31,.31h-5.54c-.17,0-.31-.14-.31-.31v-6.71c0-.17,.14-.31,.31-.31h0Zm-9.38,0h5.54c.17,0,.31,.14,.31,.31v6.71c0,.17-.14,.31-.31,.31h-5.54c-.17,0-.31-.14-.31-.31v-6.71c0-.17,.14-.31,.31-.31h0Zm9.38-11.13h5.54c.17,0,.31,.14,.31,.31v6.71c0,.17-.14,.31-.31,.31h-5.54c-.17,0-.31-.14-.31-.31v-6.71c0-.17,.14-.31,.31-.31h0ZM12.58,3.98h19.51c.34,0,.61,.33,.61,.73V51.34c0,.4-.28,.73-.61,.73H12.58c-.34,0-.61-.33-.61-.73V4.71c0-.4,.28-.73,.61-.73h0Zm26.85,25.04h5.54c.17,0,.31,.14,.31,.31v6.71c0,.17-.14,.31-.31,.31h-5.54c-.17,0-.31-.14-.31-.31v-6.71c0-.17,.14-.31,.31-.31h0Zm9.38,12.42h5.54c.17,0,.31,.14,.31,.31v6.71c0,.17-.14,.31-.31,.31h-5.54c-.17,0-.31-.14-.31-.31v-6.71c0-.17,.14-.31,.31-.31h0Zm-9.38,0h5.54c.17,0,.31,.14,.31,.31v6.71c0,.17-.14,.31-.31,.31h-5.54c-.17,0-.31-.14-.31-.31v-6.71c0-.17,.14-.31,.31-.31h0Zm9.38-12.42h5.54c.17,0,.31,.14,.31,.31v6.71c0,.17-.14,.31-.31,.31h-5.54c-.17,0-.31-.14-.31-.31v-6.71c0-.17,.14-.31,.31-.31h0Zm-11.42-4.13h19.51c.34,0,.61,.33,.61,.73v25.73c0,.4-.28,.73-.61,.73h-19.51c-.34,0-.61-.33-.61-.73V25.62c0-.4,.28-.73,.61-.73h0Z" fill="#fff" fill-rule="evenodd"/>
  </g>
</svg>