<?xml version="1.0" encoding="UTF-8"?>
<svg id="_圖層_2" data-name="圖層 2" xmlns="http://www.w3.org/2000/svg" viewBox="0 0 45.65 51.35">
  <g id="_圖層_1-2" data-name="圖層 1">
    <path d="M22.82,0c7.88,0,14.27,6.39,14.27,14.27v5.71c2.74,.04,3.82,.37,4.91,.95,1.16,.62,2.07,1.53,2.7,2.7,.62,1.16,.95,2.32,.95,5.49v13.1c0,3.18-.33,4.33-.95,5.49-.61,1.15-1.55,2.09-2.7,2.7-1.16,.62-2.31,.95-5.49,.95H9.14c-3.18,0-4.33-.33-5.49-.95-1.15-.61-2.09-1.55-2.7-2.7-.62-1.16-.95-2.31-.95-5.49v-13.1c0-3.18,.33-4.33,.95-5.49,.62-1.16,1.53-2.07,2.7-2.7,1.09-.58,2.17-.91,4.91-.95v-5.71C8.56,6.39,14.95,0,22.82,0ZM5.28,24.94c.48-.09,1.31-.15,2.64-.15h29.81c1.33,0,2.16,.06,2.64,.15,.19,.04,.23,.05,.42,.15,.17,.08,.3,.22,.39,.39,.1,.19,.11,.23,.15,.42,.09,.48,.15,1.31,.15,2.64v14.27c0,1.33-.06,2.16-.15,2.64-.02,.15-.07,.29-.15,.42-.08,.17-.22,.3-.39,.39-.13,.08-.27,.13-.42,.15-.48,.09-1.31,.15-2.64,.15H7.92c-1.33,0-2.16-.06-2.64-.15-.15-.02-.29-.07-.42-.15-.17-.08-.3-.22-.39-.39-.08-.13-.13-.27-.15-.42-.09-.48-.15-1.31-.15-2.64v-14.27c0-1.33,.06-2.16,.15-2.64,.02-.15,.07-.29,.15-.42,.08-.17,.22-.3,.39-.39,.13-.08,.27-.13,.42-.15h0Zm27.47-11.58v6.62H12.9v-6.62c0-5.48,4.44-9.93,9.93-9.93s9.93,4.44,9.93,9.93Z" fill="#fff" fill-rule="evenodd"/>
  </g>
</svg>