<?xml version="1.0" encoding="UTF-8"?>
<svg id="_圖層_2" data-name="圖層 2" xmlns="http://www.w3.org/2000/svg" viewBox="0 0 56.71 56.71">
  <g id="_圖層_1-2" data-name="圖層 1">
    <g id="Layer">
      <g>
        <path d="M31.94,56.71h-7.16c-.49,0-.91-.36-.98-.84l-.98-6.08c-2-.52-3.9-1.31-5.68-2.36l-5,3.61c-.4,.29-.94,.24-1.29-.1l-5.07-5.07c-.35-.35-.39-.89-.1-1.29l3.61-5c-1.05-1.78-1.84-3.69-2.36-5.68l-6.08-.98c-.48-.08-.84-.5-.84-.98v-7.16c0-.49,.36-.91,.84-.98l6.08-.98c.52-2,1.31-3.9,2.36-5.68l-3.61-5c-.29-.4-.24-.94,.1-1.29l5.07-5.07c.35-.35,.89-.39,1.29-.1l5,3.61c1.78-1.05,3.69-1.84,5.68-2.36l.98-6.08c.08-.48,.5-.84,.98-.84h7.16c.49,0,.91,.36,.98,.84l.98,6.08c2,.52,3.9,1.31,5.68,2.36l5-3.61c.4-.29,.94-.24,1.29,.1l5.07,5.07c.35,.35,.39,.89,.1,1.29l-3.61,5c1.05,1.78,1.84,3.69,2.36,5.68l6.08,.98c.48,.08,.84,.5,.84,.98v7.16c0,.49-.36,.91-.84,.98l-6.08,.98c-.52,2-1.31,3.9-2.36,5.68l3.61,5c.29,.4,.24,.94-.1,1.29l-5.07,5.07c-.35,.35-.89,.39-1.29,.1l-5-3.61c-1.78,1.05-3.69,1.84-5.68,2.36l-.98,6.08c-.08,.48-.5,.84-.98,.84Zm-6.28-2.01h5.47l.95-5.9c.06-.4,.37-.73,.77-.82,2.24-.5,4.36-1.38,6.3-2.61,.34-.22,.79-.2,1.12,.03l4.85,3.5,3.87-3.87-3.5-4.85c-.24-.33-.25-.77-.03-1.12,1.23-1.94,2.11-4.06,2.61-6.3,.09-.4,.41-.7,.81-.77l5.9-.95v-5.47l-5.9-.95c-.4-.06-.73-.37-.82-.77-.5-2.24-1.38-4.36-2.61-6.3-.22-.34-.2-.79,.03-1.12l3.5-4.85-3.87-3.87-4.85,3.5c-.33,.24-.77,.25-1.12,.03-1.94-1.23-4.06-2.11-6.3-2.61-.4-.09-.7-.41-.77-.82l-.95-5.9h-5.47l-.95,5.9c-.06,.4-.37,.73-.77,.82-2.24,.5-4.36,1.38-6.3,2.61-.34,.22-.79,.2-1.12-.03l-4.85-3.5-3.87,3.87,3.5,4.85c.24,.33,.25,.77,.03,1.12-1.23,1.94-2.11,4.06-2.61,6.3-.09,.4-.41,.7-.82,.77l-5.9,.95v5.47l5.9,.95c.4,.06,.73,.37,.82,.77,.5,2.24,1.38,4.36,2.61,6.3,.22,.34,.2,.79-.03,1.12l-3.5,4.85,3.87,3.87,4.85-3.5c.33-.24,.77-.25,1.12-.03,1.94,1.23,4.06,2.11,6.3,2.61,.4,.09,.7,.41,.77,.81l.95,5.9Z" fill="#fff"/>
        <path d="M28.36,43.68c-8.46,0-15.35-6.88-15.35-15.35s6.88-15.35,15.35-15.35,15.35,6.88,15.35,15.35-6.88,15.35-15.35,15.35Zm0-28.7c-7.36,0-13.35,5.99-13.35,13.35s5.99,13.35,13.35,13.35,13.35-5.99,13.35-13.35-5.99-13.35-13.35-13.35Z" fill="#fff"/>
      </g>
    </g>
  </g>
</svg>