<?xml version="1.0" encoding="UTF-8"?>
<svg id="_圖層_2" data-name="圖層 2" xmlns="http://www.w3.org/2000/svg" viewBox="0 0 51.92 54.82">
  <g id="_圖層_1-2" data-name="圖層 1">
    <g>
      <path d="M51.88,39.43h0c-.26-1.79-1.33-3.29-2.83-4.12h-.03s0-.01,0-.01c-.74-.31-1.61-.49-2.51-.49-1.02,0-1.98,.23-2.84,.64l.04-.02-10.2,4.58c0-.08,.05-.15,.05-.24-.03-2.42-1.99-4.37-4.42-4.37-.12,0-.24,0-.36,.01h.02s-6.68,0-6.68,0l-8.4-2.46c-.11-.04-.23-.05-.37-.05h-3.84v-1.34c0-.73-.59-1.32-1.32-1.32H1.32C.59,30.24,0,30.83,0,31.56v21.55C0,53.85,.59,54.44,1.32,54.44h6.86c.73,0,1.32-.59,1.32-1.32v-1.77c3.18,.5,6.03,1.3,8.73,2.38,1.99,.69,4.26,1.09,6.63,1.09h.07c2.83,0,5.53-.56,7.99-1.59l-.14,.05c2.19-.97,4.05-2,5.81-3.17-.04,.03-.09,.05-.13,.08l.14-.09s0,0-.01,0c.55-.34,1.1-.68,1.66-1.01,2.88-1.71,5.2-3.21,7.29-4.72,1.02-.73,1.91-1.45,2.76-2.21l-.02,.02c.66-.53,1.18-1.2,1.54-1.97v-.03c.07-.14,.1-.3,.1-.47,0-.1-.01-.2-.03-.29ZM6.86,51.79H2.65v-18.91H6.86v18.91Zm41.57-11.48h0s0,0,0,0c-.73,.65-1.52,1.29-2.34,1.88l-.08,.06c-2.02,1.46-4.27,2.91-7.09,4.58-.61,.36-1.22,.74-1.83,1.11-1.51,1.01-3.24,1.98-5.06,2.8l-.23,.09c-2.03,.84-4.4,1.32-6.87,1.32-2.12,0-4.17-.36-6.07-1.02l.13,.04c-2.75-1.14-5.94-2.02-9.27-2.48l-.21-.02v-13.13h3.64l8.4,2.46c.11,.04,.23,.05,.37,.05h6.88c1.56,0,2.11,.92,2.11,1.71s-.55,1.71-2.11,1.71h-12.02c-.73,0-1.32,.59-1.32,1.32s.59,1.32,1.32,1.32h13.75c.19,0,.38-.04,.54-.12h0s13.76-6.18,13.76-6.18c.51-.23,1.1-.37,1.73-.37,.47,0,.92,.08,1.34,.22h-.03c.68,.4,1.16,1.06,1.33,1.84v.02c-.24,.28-.49,.53-.75,.77Z" fill="#fff"/>
      <path d="M.03,15.39h0c.26,1.79,1.33,3.29,2.83,4.12h.03s0,.01,0,.01c.74,.31,1.61,.49,2.51,.49,1.02,0,1.98-.23,2.84-.64l-.04,.02,10.2-4.58c0,.08-.05,.15-.05,.24,.03,2.42,1.99,4.37,4.42,4.37,.12,0,.24,0,.36-.01h-.02s6.68,0,6.68,0l8.4,2.46c.11,.04,.23,.05,.37,.05h3.84v1.34c0,.73,.59,1.32,1.32,1.32h6.86c.73,0,1.32-.59,1.32-1.32V1.7c0-.73-.59-1.32-1.32-1.32h-6.86c-.73,0-1.32,.59-1.32,1.32v1.77c-3.18-.5-6.03-1.3-8.73-2.38-1.99-.69-4.26-1.09-6.63-1.09h-.07c-2.83,0-5.53,.56-7.99,1.59l.14-.05c-2.19,.97-4.05,2-5.81,3.17,.04-.03,.09-.05,.13-.08l-.14,.09s0,0,.01,0c-.55,.34-1.1,.68-1.66,1.01-2.88,1.71-5.2,3.21-7.29,4.72-1.02,.73-1.91,1.45-2.76,2.21l.02-.02c-.66,.53-1.18,1.2-1.54,1.97v.03c-.07,.14-.1,.3-.1,.47,0,.1,.01,.2,.03,.29ZM45.06,3.02h4.21V21.93h-4.21V3.02ZM3.49,14.51h0s0,0,0,0c.73-.65,1.52-1.29,2.34-1.88l.08-.06c2.02-1.46,4.27-2.91,7.09-4.58,.61-.36,1.22-.74,1.83-1.11,1.51-1.01,3.24-1.98,5.06-2.8l.23-.09c2.03-.84,4.4-1.32,6.87-1.32,2.12,0,4.17,.36,6.07,1.02l-.13-.04c2.75,1.14,5.94,2.02,9.27,2.48l.21,.02v13.13h-3.64l-8.4-2.46c-.11-.04-.23-.05-.37-.05h-6.88c-1.56,0-2.11-.92-2.11-1.71s.55-1.71,2.11-1.71h12.02c.73,0,1.32-.59,1.32-1.32s-.59-1.32-1.32-1.32h-13.75c-.19,0-.38,.04-.54,.12h0s-13.76,6.18-13.76,6.18c-.51,.23-1.1,.37-1.73,.37-.47,0-.92-.08-1.34-.22h.03c-.68-.4-1.16-1.06-1.33-1.84v-.02c.24-.28,.49-.53,.75-.77Z" fill="#fff"/>
    </g>
  </g>
</svg>