<?xml version="1.0" encoding="UTF-8"?>
<svg id="_圖層_2" data-name="圖層 2" xmlns="http://www.w3.org/2000/svg" xmlns:xlink="http://www.w3.org/1999/xlink" viewBox="0 0 26.01 26.01">
  <defs>
    <linearGradient id="_未命名漸層_15" data-name="未命名漸層 15" x1="18.82" y1="7.25" x2="20.97" y2="5.09" gradientUnits="userSpaceOnUse">
      <stop offset="0" stop-color="#f6c600"/>
      <stop offset=".21" stop-color="#ff5503"/>
      <stop offset=".42" stop-color="#fd2147"/>
      <stop offset=".71" stop-color="#8301ff"/>
      <stop offset="1" stop-color="#f000bc"/>
    </linearGradient>
    <linearGradient id="_未命名漸層_15-2" data-name="未命名漸層 15" x1="8.59" y1="17.53" x2="17.64" y2="8.48" xlink:href="#_未命名漸層_15"/>
    <linearGradient id="_未命名漸層_15-3" data-name="未命名漸層 15" x1="2.29" y1="23.72" x2="23.72" y2="2.29" xlink:href="#_未命名漸層_15"/>
  </defs>
  <g id="_圖層_1-2" data-name="圖層 1">
    <g>
      <path d="M19.89,4.64c-.84,0-1.53,.68-1.53,1.52s.68,1.53,1.53,1.53,1.53-.68,1.53-1.53-.68-1.52-1.53-1.52Z" fill="url(#_未命名漸層_15)"/>
      <path d="M13.11,6.6c-3.53,0-6.41,2.87-6.41,6.41s2.87,6.41,6.41,6.41,6.41-2.87,6.41-6.41-2.87-6.41-6.41-6.41Zm0,10.51c-2.26,0-4.1-1.84-4.1-4.1s1.84-4.1,4.1-4.1,4.1,1.84,4.1,4.1-1.84,4.1-4.1,4.1Z" fill="url(#_未命名漸層_15-2)"/>
      <path d="M18.2,26.01H7.81c-4.31,0-7.81-3.51-7.81-7.81V7.81C0,3.51,3.51,0,7.81,0h10.39c4.31,0,7.81,3.51,7.81,7.81v10.39c0,4.31-3.51,7.81-7.81,7.81ZM7.81,2.45c-2.96,0-5.37,2.41-5.37,5.37v10.39c0,2.96,2.41,5.37,5.37,5.37h10.39c2.96,0,5.37-2.41,5.37-5.37V7.81c0-2.96-2.41-5.37-5.37-5.37H7.81Z" fill="url(#_未命名漸層_15-3)"/>
    </g>
  </g>
</svg>