<?xml version="1.0" encoding="UTF-8"?>
<svg id="_圖層_2" data-name="圖層 2" xmlns="http://www.w3.org/2000/svg" viewBox="0 0 27.32 26.01">
  <g id="_圖層_1-2" data-name="圖層 1">
    <path d="M22.04,10.57c.4,0,.72,.32,.72,.72s-.32,.72-.72,.72h-2v1.28h2c.4,0,.72,.32,.72,.72s-.32,.72-.72,.72h-2.72c-.39,0-.71-.32-.71-.72v-5.43c0-.39,.32-.72,.72-.72h2.72c.39,0,.71,.32,.71,.72s-.32,.72-.72,.72h-2v1.28h2Zm-4.39,3.43c0,.31-.2,.58-.49,.68-.07,.02-.15,.04-.23,.04-.24,0-.45-.1-.58-.28l-2.78-3.78v3.35c0,.39-.32,.72-.72,.72s-.71-.32-.71-.72v-5.43c0-.31,.2-.58,.49-.68,.07-.03,.15-.04,.22-.04,.22,0,.43,.12,.56,.29l2.8,3.79v-3.36c0-.39,.32-.72,.72-.72s.72,.32,.72,.72v5.43Zm-6.53,0c0,.39-.32,.72-.72,.72s-.71-.32-.71-.72v-5.43c0-.39,.32-.72,.72-.72s.71,.32,.71,.72v5.43Zm-2.81,.72h-2.72c-.39,0-.72-.32-.72-.72v-5.43c0-.39,.32-.72,.72-.72s.72,.32,.72,.72v4.71h2c.4,0,.72,.32,.72,.72s-.32,.72-.72,.72m19-3.64C27.32,4.97,21.19,0,13.66,0S0,4.97,0,11.09c0,5.48,4.86,10.06,11.42,10.94,.45,.09,1.05,.29,1.2,.67,.14,.34,.09,.87,.04,1.23l-.19,1.16c-.05,.34-.27,1.35,1.19,.73,1.47-.61,7.87-4.64,10.74-7.94,1.96-2.15,2.9-4.35,2.9-6.79" fill="#6cc433"/>
  </g>
</svg>